<svg xmlns="http://www.w3.org/2000/svg" viewBox="0 0 329.28 66.1"><defs><style>.cls-1{fill:#fff;}.cls-2{fill:#019de0;}</style></defs><title>Main Logo</title><g id="Layer_2" data-name="Layer 2"><g id="Layer_1-2" data-name="Layer 1"><path class="cls-1" d="M24.09,18.2c-2.54-1.38-4.74-1.77-9.58-1.77-2.3,0-5.36.05-8.57.15-2.15,0-3.69.09-4.31.09L0,16.72v2.11H.72c3.16,0,3.93.91,4,4.88V41.57c0,3.83-.86,5-3.88,5H.15v2.11H16.52V46.55h-.86c-3,0-3.88-1.15-3.88-5V34.25h3.74c3.54,0,5.79-.34,7.71-1.15a8.19,8.19,0,0,0,5-7.24h0a4.35,4.35,0,0,0,0-.51A7.84,7.84,0,0,0,24.09,18.2ZM18,31.13a8.31,8.31,0,0,1-4.41.82H11.78V18.73H13c2.49,0,3.69.24,4.84.86,1.72,1,2.73,3.16,2.73,5.89S19.59,30.22,18,31.13Z"/><path class="cls-1" d="M56.32,46.65c-2.21,0-2.69-.72-2.78-4V36.54c0-2.58-.24-3.92-.86-5a6.74,6.74,0,0,0-5.89-2.93,8.89,8.89,0,0,0-7.14,3.6l.05-16-6.38,5.35a10.79,10.79,0,0,1,.16,1.83V42.67c-.1,3.26-.58,3.93-3,4h-.24v2h12v-2H42.1c-2-.15-2.35-.72-2.45-4V35.15c1.49-2.34,3-3.44,4.74-3.44,2,0,2.88,1.24,2.88,4.12v6.84c-.1,3.26-.43,3.79-2.35,3.93l-.33,0v2h12v-2Z"/><path class="cls-1" d="M70.73,46.65c-2.3,0-2.82-.77-2.92-4V28.6L61.43,34a8.65,8.65,0,0,1,.2,2.11v6.61c-.09,3.26-.62,3.93-3,4H58v2H71v-2ZM64.65,16.19a3.67,3.67,0,1,0,3.59,3.69A3.63,3.63,0,0,0,64.65,16.19Z"/><path class="cls-1" d="M84.91,46.65c-2.35,0-3-.91-3-4l0-26.46-6.39,5.36a3.06,3.06,0,0,1,.08.47,13.2,13.2,0,0,1,.08,1.38V42.67c-.09,3.26-.57,3.93-2.92,4h-.33v2H85.24v-2Z"/><path class="cls-1" d="M109.71,44.63c-.19,1.06-.77,1.68-1.53,1.68-1,0-1.34-.77-1.34-2.82V34.92c0-2.4-.24-3.17-1.25-4.22-1.34-1.44-3.64-2.11-7.08-2.11-5.7,0-10,2.11-10,4.94a2.17,2.17,0,0,0,2.39,2.1,2.54,2.54,0,0,0,2.73-2.44,3.27,3.27,0,0,1,.67-1.72A4.76,4.76,0,0,1,97,30.7a4.68,4.68,0,0,1,2.78.82c.62.43.86,1.34.86,2.87v1.48l-1.91.72c-.91.38-1.63.67-2.06.82a26.42,26.42,0,0,0-7.52,4.11,4.73,4.73,0,0,0-1.39,3.31c0,2.58,2.15,4.31,5.36,4.31A13.49,13.49,0,0,0,101,46.31c.81,1.87,2.54,2.83,5,2.83,3.25,0,5.22-1.68,5.36-4.51Zm-9-.43a6.66,6.66,0,0,1-4.17,2.06,2.63,2.63,0,0,1-2.58-2.73c0-2.1,1.72-3.54,6.46-5.45l.29-.1Z"/><path class="cls-1" d="M138.68,46.65c-2.25,0-2.73-.72-2.82-4V36.21c0-2.59-.2-3.59-.82-4.74a6.49,6.49,0,0,0-5.7-2.88,9.82,9.82,0,0,0-7.32,3.5,9.71,9.71,0,0,0-.53-3.16L115.42,34a9.11,9.11,0,0,1,.33,2.24v6.41c-.1,3.26-.58,3.93-2.92,4h-.2v2h12v-2h-.19c-2.06-.15-2.39-.72-2.49-4V35.11c1.68-2.3,3.21-3.36,4.89-3.36s2.77,1.2,2.77,3.12v7.8c-.09,3.26-.43,3.79-2.34,3.93l-.34,0v2h12v-2Z"/><path class="cls-1" d="M154,44.73c-.77,1.39-1.54,2-2.64,2a1.67,1.67,0,0,1-1.62-.95c-.44-.72-.48-1.25-.48-3.74V31.47h5.79V29.36h-5.79V26.28l-6.18,5.19V42.58c0,4.5,2.06,6.84,6,6.84,3.17,0,5.66-1.53,6.71-4Z"/><path class="cls-1" d="M183.65,46.65c-2.21,0-2.68-.72-2.78-4V36.54c0-2.58-.24-3.92-.86-5a6.74,6.74,0,0,0-5.89-2.93,8.89,8.89,0,0,0-7.14,3.6l.05-16-6.38,5.35a9.09,9.09,0,0,1,.16,1.84V42.67c-.1,3.26-.58,3.93-3,4h-.24v2h12v-2h-.14c-2-.15-2.35-.72-2.45-4V35.15c1.49-2.34,3-3.44,4.74-3.44,2,0,2.88,1.24,2.88,4.12v6.84c-.1,3.26-.43,3.79-2.35,3.93l-.33,0v2h12v-2Z"/><path class="cls-1" d="M201.46,28.59c-2.63,0-5.17,1.87-6.7,4.89A16.9,16.9,0,0,0,194,28.6l-5.71,4.79a6.52,6.52,0,0,1,.54,3v6.27c-.1,3.26-.58,3.93-2.92,4h-.29v2h12.93v-2h-.53c-2.34,0-2.92-.77-3-4V40.13c0-3.06.28-4.4,1.19-5.93.72-1.2,1.53-1.82,2.44-1.82.63,0,1.06.29,1.63,1,1,1.3,1.44,1.63,2.44,1.63a2.62,2.62,0,0,0,2.54-2.78A3.66,3.66,0,0,0,201.46,28.59Z"/><path class="cls-1" d="M218.56,28.59c-6.61,0-11.3,4.36-11.3,10.49S212,49.42,218.75,49.42c6.32,0,11.06-4.45,11.06-10.39S225.12,28.59,218.56,28.59Zm-.1,18.73a4.13,4.13,0,0,1-3.54-1.92c-.72-1.29-1-3.21-1-6.41s.29-5.08,1-6.37a4,4,0,0,1,3.64-1.92c3.3,0,4.59,2.3,4.59,8.24C223.15,45.11,221.91,47.32,218.46,47.32Z"/><path class="cls-1" d="M259.4,38.46c-1.53,5.89-3.88,7.95-8.9,7.95h-1.25c-4.12-.1-4.83-.82-4.74-5V23.71c.05-4,.82-4.93,4-4.88h.91V16.72H232.88v2.11h.52c3.21,0,4,.91,4,4.88V41.57c0,3.88-.87,5-3.93,5h-.62v2.11h28.44l.14-10.2Z"/><path class="cls-1" d="M286.56,44.63c-.2,1.06-.77,1.68-1.54,1.68-1,0-1.34-.77-1.34-2.82V34.92c0-2.4-.24-3.17-1.24-4.22-1.34-1.44-3.64-2.11-7.09-2.11-5.7,0-10,2.11-10,4.94a2.18,2.18,0,0,0,2.4,2.1,2.54,2.54,0,0,0,2.73-2.44,3.19,3.19,0,0,1,.67-1.72,4.74,4.74,0,0,1,2.73-.77,4.63,4.63,0,0,1,2.77.82c.63.43.87,1.34.87,2.87v1.48l-1.92.72c-.91.38-1.63.67-2.06.82A26.56,26.56,0,0,0,266,41.52a4.77,4.77,0,0,0-1.38,3.31c0,2.58,2.15,4.31,5.36,4.31a13.44,13.44,0,0,0,7.8-2.83c.82,1.87,2.54,2.83,5,2.83,3.26,0,5.22-1.68,5.37-4.51Zm-9.05-.43a6.71,6.71,0,0,1-4.17,2.06,2.64,2.64,0,0,1-2.59-2.73c0-2.1,1.73-3.54,6.47-5.45l.29-.1Z"/><path class="cls-1" d="M305,28.59a10,10,0,0,0-6.7,2.59v-15L292,21.54a8.74,8.74,0,0,1,.17,1.93V49.23h1.63c.43-.52,2.34-2.34,3.59-3.45a9.28,9.28,0,0,0,7.47,3.5c5.79,0,9.91-4.36,9.91-10.44S310.69,28.59,305,28.59Zm-2.2,18.3a4.28,4.28,0,0,1-3.78-2,9.52,9.52,0,0,1-.72-2.5V33.77c1.67-1.78,3.25-2.59,5-2.59,3.11,0,4.79,2.73,4.79,7.71C308.11,44.16,306.29,46.89,302.84,46.89Z"/><polygon class="cls-2" points="219.44 20.59 216.44 20.59 216.44 0 242.04 0 242.04 3 219.44 3 219.44 20.59"/><polygon class="cls-2" points="329.28 66.1 303.67 66.1 303.67 63.1 326.28 63.1 326.28 45.51 329.28 45.51 329.28 66.1"/></g></g></svg>